<svg id="svg" xmlns="http://www.w3.org/2000/svg" xmlns:xlink="http://www.w3.org/1999/xlink" width="400" height="395.0617283950617" viewBox="0, 0, 400,395.0617283950617"><g id="svgg"><path id="path0" d="M57.156 51.339 C 43.235 53.802,35.556 61.117,35.556 71.913 C 35.556 87.522,56.060 93.645,75.358 83.799 C 83.163 79.818,166.636 80.867,171.238 85.004 C 171.722 85.440,168.808 96.617,164.643 110.300 C 160.539 123.783,152.890 149.481,147.647 167.407 C 132.580 218.919,113.218 278.525,106.583 293.827 C 96.310 317.519,79.223 320.618,59.790 302.313 C 44.409 287.825,33.809 286.343,27.127 297.746 C 20.721 308.676,27.827 323.541,43.079 331.119 C 73.676 346.319,117.313 330.186,139.769 295.369 C 152.247 276.024,155.454 267.061,177.763 189.186 C 196.008 125.499,206.093 92.785,214.286 70.706 C 216.486 64.780,218.152 59.798,217.990 59.636 C 214.416 56.062,71.987 48.714,57.156 51.339 M316.803 60.215 C 295.228 64.143,272.507 80.116,259.243 100.680 C 246.765 120.026,243.558 128.989,221.249 206.864 C 203.004 270.551,192.920 303.264,184.726 325.343 C 182.527 331.269,180.860 336.251,181.022 336.413 C 183.483 338.874,250.971 343.302,316.765 345.320 C 349.961 346.338,363.465 340.316,363.453 324.498 C 363.442 308.834,344.996 302.768,324.775 311.776 L 319.179 314.269 282.306 314.418 C 244.520 314.572,227.160 313.356,227.160 310.556 C 227.160 309.918,230.462 298.560,234.498 285.316 C 238.533 272.071,246.124 246.568,251.367 228.642 C 266.423 177.161,285.791 117.531,292.429 102.222 C 302.702 78.530,319.790 75.431,339.222 93.736 C 354.603 108.224,365.203 109.706,371.886 98.303 C 384.327 77.074,350.955 53.998,316.803 60.215 " stroke="none" fill="#4194e1" fill-rule="evenodd"></path></g></svg>