<?xml version="1.0" standalone="no"?>
<!DOCTYPE svg PUBLIC "-//W3C//DTD SVG 20010904//EN"
 "http://www.w3.org/TR/2001/REC-SVG-20010904/DTD/svg10.dtd">
<svg version="1.0" xmlns="http://www.w3.org/2000/svg"
 width="134.000000pt" height="135.000000pt" viewBox="0 0 134.000000 135.000000"
 preserveAspectRatio="xMidYMid meet">
<metadata>
Created by potrace 1.16, written by Peter Selinger 2001-2019
</metadata>
<g transform="translate(0.000000,135.000000) scale(0.100000,-0.100000)"
fill="#07001C" stroke="none">
<path d="M1244 1299 c-22 -25 -9 -54 26 -54 35 0 48 29 26 54 -11 12 -22 21
-26 21 -4 0 -15 -9 -26 -21z"/>
<path d="M262 1261 c-233 -185 -318 -548 -192 -820 32 -69 78 -141 89 -141 13
0 81 68 81 81 0 7 -16 29 -35 49 -32 33 -34 38 -20 50 14 12 24 6 73 -43 l57
-57 -98 -98 c-96 -96 -108 -117 -85 -140 23 -23 44 -11 140 85 l98 98 57 -57
c49 -49 55 -59 43 -73 -12 -14 -18 -12 -57 27 l-43 42 -43 -42 c-53 -53 -48
-63 64 -120 114 -57 191 -76 319 -75 216 0 408 88 539 248 40 48 54 83 29 72
-123 -53 -165 -68 -230 -81 -42 -9 -98 -16 -123 -16 -73 0 -194 29 -274 66
-97 45 -134 46 -95 2 14 -15 15 -20 4 -33 -12 -14 -18 -12 -52 22 l-38 37 55
56 c56 56 65 76 43 98 -22 22 -42 13 -99 -44 -50 -49 -57 -53 -69 -39 -12 14
-6 24 46 76 61 62 64 76 21 103 -14 9 -27 0 -75 -47 -32 -31 -62 -57 -67 -56
-6 0 -23 16 -39 35 -21 25 -26 38 -18 46 8 8 18 6 36 -6 14 -9 28 -16 31 -16
12 0 3 35 -26 91 -101 200 -91 417 29 652 10 20 -32 2 -76 -32z m-43 -695 c9
-10 8 -16 -4 -26 -19 -16 -41 1 -32 24 8 20 21 20 36 2z m340 -362 c-9 -11
-15 -12 -25 -3 -11 9 -12 15 -3 25 9 11 15 12 25 3 11 -9 12 -15 3 -25z"/>
<path d="M561 1285 c-76 -21 -186 -82 -220 -120 -49 -57 -67 -241 -35 -375 18
-77 62 -180 78 -180 6 0 148 137 316 305 222 222 301 308 293 316 -6 6 -42 22
-79 36 -88 33 -267 42 -353 18z"/>
<path d="M1066 1219 c-49 -54 -55 -83 -24 -103 15 -9 28 -1 78 49 69 68 76 98
24 103 -27 3 -38 -5 -78 -49z"/>
<path d="M1164 1148 c-62 -64 -71 -86 -45 -112 l21 -21 68 68 c56 56 65 70 56
85 -21 33 -56 26 -100 -20z"/>
<path d="M909 1063 c-73 -77 -75 -80 -54 -103 10 -11 23 -20 29 -20 15 0 126
112 126 126 0 13 -33 44 -46 44 -5 0 -30 -21 -55 -47z"/>
<path d="M987 962 c-31 -32 -57 -62 -57 -68 0 -6 9 -19 20 -29 20 -18 22 -18
85 45 36 36 65 68 65 71 0 12 -30 39 -44 39 -6 0 -37 -26 -69 -58z"/>
<path d="M902 712 c-166 -163 -302 -303 -302 -309 0 -17 83 -58 161 -79 137
-37 356 -17 405 38 35 38 81 129 103 202 37 122 24 302 -30 408 -11 21 -23 38
-27 37 -4 0 -143 -134 -310 -297z"/>
<path d="M728 882 c-32 -33 -58 -64 -58 -69 0 -6 9 -21 19 -34 l20 -24 65 65
c36 35 66 69 66 76 0 12 -32 44 -45 44 -4 0 -34 -26 -67 -58z"/>
<path d="M817 792 c-31 -32 -57 -61 -57 -66 0 -4 8 -18 18 -31 l19 -24 68 69
c68 68 68 70 50 90 -10 11 -23 20 -29 20 -7 0 -37 -26 -69 -58z"/>
<path d="M557 711 c-32 -33 -57 -66 -57 -73 0 -19 20 -38 40 -38 17 0 130 109
130 126 0 13 -33 44 -47 44 -5 0 -35 -27 -66 -59z"/>
<path d="M649 633 c-53 -51 -61 -64 -56 -85 12 -48 36 -43 99 19 62 62 69 80
38 108 -19 17 -21 16 -81 -42z"/>
</g>
</svg>
