<?xml version="1.0" standalone="no"?>
<!DOCTYPE svg PUBLIC "-//W3C//DTD SVG 20010904//EN"
 "http://www.w3.org/TR/2001/REC-SVG-20010904/DTD/svg10.dtd">
<svg version="1.0" xmlns="http://www.w3.org/2000/svg"
 width="300.000000pt" height="300.000000pt" viewBox="0 0 300.000000 300.000000"
 preserveAspectRatio="xMidYMid meet">
<metadata>
Created by potrace 1.16, written by Peter Selinger 2001-2019
</metadata>
<g transform="translate(0.000000,300.000000) scale(0.100000,-0.100000)"
fill="#000000" stroke="none">
<path d="M1683 2541 c-145 -253 -263 -463 -263 -468 0 -4 35 -26 78 -48 117
-60 234 -180 295 -305 65 -132 81 -200 81 -345 0 -142 -22 -235 -85 -357 -72
-138 -218 -251 -376 -292 -78 -21 -228 -20 -307 0 -211 54 -352 203 -387 407
-30 178 46 369 181 456 115 75 253 90 381 42 188 -71 269 -283 179 -467 -119
-243 -499 -181 -500 81 0 109 52 183 148 211 65 19 91 13 37 -10 -50 -21 -72
-42 -96 -88 -40 -79 -10 -179 67 -224 38 -23 54 -26 108 -22 50 3 71 10 99 31
49 37 79 104 79 175 -1 142 -101 240 -257 250 -133 8 -245 -60 -307 -186 -31
-62 -33 -73 -33 -172 0 -97 2 -110 32 -172 107 -227 404 -320 648 -205 133 64
234 181 289 337 27 76 30 98 31 205 0 106 -3 130 -29 209 -59 180 -184 321
-361 406 -138 67 -212 84 -365 84 -137 0 -231 -19 -345 -69 -355 -157 -581
-577 -535 -994 42 -386 268 -705 625 -884 90 -45 230 -92 335 -111 112 -22
403 -22 508 0 402 82 735 323 941 682 172 300 276 719 256 1027 -31 465 -228
826 -606 1112 -91 69 -245 163 -266 163 -13 0 -92 -129 -280 -459z"/>
</g>
</svg>
