<?xml version="1.0" standalone="no"?>
<!DOCTYPE svg PUBLIC "-//W3C//DTD SVG 20010904//EN"
 "http://www.w3.org/TR/2001/REC-SVG-20010904/DTD/svg10.dtd">
<svg version="1.0" xmlns="http://www.w3.org/2000/svg"
 width="360.000000pt" height="360.000000pt" viewBox="0 0 360.000000 360.000000"
 preserveAspectRatio="xMidYMid meet">
<metadata>
Created by potrace 1.16, written by Peter Selinger 2001-2019
</metadata>
<g transform="translate(0.000000,360.000000) scale(0.100000,-0.100000)"
fill="#07001C" stroke="none">
<path d="M897 3293 c-3 -5 -183 -341 -402 -748 -355 -660 -397 -742 -388 -765
6 -14 186 -351 401 -750 l390 -725 902 0 902 0 404 740 c222 407 404 746 404
754 0 8 -102 202 -227 430 -125 229 -241 443 -259 476 -18 33 -98 179 -177
325 l-145 265 -900 3 c-496 1 -903 -1 -905 -5z m1194 -775 c216 -86 366 -255
431 -483 19 -67 22 -105 23 -235 0 -132 -4 -167 -23 -235 -66 -230 -215 -397
-431 -483 l-66 -27 -412 -3 -413 -3 0 751 0 751 413 -3 412 -3 66 -27z"/>
<path d="M1500 1800 l0 -450 225 0 225 0 65 29 c147 67 234 222 235 417 0 201
-86 357 -235 425 l-65 29 -225 0 -225 0 0 -450z"/>
</g>
</svg>
