<?xml version="1.0" standalone="no"?>
<!DOCTYPE svg PUBLIC "-//W3C//DTD SVG 20010904//EN"
 "http://www.w3.org/TR/2001/REC-SVG-20010904/DTD/svg10.dtd">
<svg version="1.0" xmlns="http://www.w3.org/2000/svg"
 width="405.000000pt" height="400.000000pt" viewBox="0 0 405.000000 400.000000"
 preserveAspectRatio="xMidYMid meet">

<g transform="translate(0.000000,400.000000) scale(0.100000,-0.100000)"
fill="#4194e1" stroke="none">
<path d="M463 3888 c-160 -13 -264 -100 -247 -207 10 -65 41 -103 99 -123 66
-23 116 -22 209 2 43 11 114 24 159 30 106 14 580 25 679 16 76 -8 77 -8 84
-39 12 -54 6 -764 -11 -1227 -12 -322 -37 -664 -56 -775 -34 -195 -156 -362
-296 -405 -53 -16 -93 -20 -222 -20 -137 0 -160 -2 -188 -20 -90 -54 -85 -196
9 -275 64 -55 134 -78 244 -83 82 -3 115 0 180 18 375 102 606 437 654 948 11
116 22 484 45 1467 8 347 17 639 20 650 13 52 35 50 -647 50 -348 0 -670 -3
-715 -7z"/>
<path d="M2925 3216 c-311 -94 -524 -355 -605 -741 -38 -184 -42 -286 -75
-1670 -8 -347 -17 -639 -20 -650 -13 -52 -34 -50 637 -50 743 -1 785 2 870 47
50 27 67 42 86 79 43 85 6 180 -83 211 -66 23 -116 22 -209 -2 -43 -11 -114
-24 -159 -30 -106 -14 -580 -25 -679 -16 -76 8 -77 8 -84 39 -14 60 -4 884 17
1357 11 253 34 555 50 645 34 195 156 362 296 405 53 16 93 20 222 20 137 0
160 2 188 20 90 54 85 196 -9 275 -68 57 -133 78 -253 82 -94 3 -122 -1 -190
-21z"/>
</g>
</svg>
