<?xml version="1.0" standalone="no"?>
<!DOCTYPE svg PUBLIC "-//W3C//DTD SVG 20010904//EN"
 "http://www.w3.org/TR/2001/REC-SVG-20010904/DTD/svg10.dtd">
<svg version="1.0" xmlns="http://www.w3.org/2000/svg"
 width="900.000000pt" height="900.000000pt" viewBox="55 140 750.000000 600.000000" style="background-color:yellow"
 preserveAspectRatio="xMidYMid meet">
<metadata>
Created by potrace 1.16, written by Peter Selinger 2001-2019
</metadata>
<g transform="translate(0.000000,900.000000) scale(0.100000,-0.100000)"
fill="#000000" stroke="none">
<path d="M4205 8011 c-57 -27 -3298 -3271 -3320 -3323 -23 -56 -19 -134 9
-193 19 -41 330 -355 1652 -1677 l1629 -1627 58 -16 c62 -18 119 -14 172 12
41 20 3282 3259 3304 3303 30 57 35 112 16 177 l-16 58 -1627 1629 c-1322
1322 -1636 1633 -1677 1652 -62 30 -143 32 -200 5z m1743 -1753 c888 -887
1618 -1623 1623 -1635 5 -14 5 -34 -2 -50 -10 -27 -336 -363 -351 -363 -5 0
-8 88 -8 195 l0 195 -105 0 -105 0 0 -306 0 -307 -102 -103 c-56 -57 -105
-104 -110 -104 -4 0 -8 185 -8 410 l0 410 -105 0 -105 0 0 -521 0 -522 -102
-103 c-56 -57 -105 -104 -110 -104 -4 0 -8 281 -8 625 l0 625 -320 0 -320 0 0
-951 0 -952 -102 -103 c-56 -57 -105 -104 -110 -104 -4 0 -8 475 -8 1055 l0
1055 -105 0 -105 0 0 -1166 0 -1167 -102 -103 c-56 -57 -105 -104 -110 -104
-4 0 -8 572 -8 1270 l0 1270 -320 0 -320 0 0 -1594 0 -1594 -27 -33 c-31 -36
-84 -62 -110 -52 -10 3 -33 20 -50 36 l-33 31 0 1603 0 1603 -105 0 -105 0 0
-1497 0 -1498 -110 110 -110 110 0 1387 0 1388 -105 0 -105 0 0 -1282 0 -1283
-110 110 -110 110 0 1172 0 1173 -320 0 -320 0 0 -852 0 -853 -110 110 -110
110 0 742 0 743 -320 0 -320 0 0 -422 0 -423 -110 110 -110 110 0 312 0 313
-105 0 -105 0 0 -207 0 -208 -190 191 c-173 173 -190 193 -190 224 0 33 94
129 1618 1652 1531 1532 1619 1618 1652 1618 33 0 120 -86 1648 -1612z"/>
<path d="M3382 6193 c3 -228 5 -262 22 -296 39 -79 139 -111 205 -65 45 31 70
66 81 114 5 21 10 144 10 272 l0 232 -45 0 -45 0 0 -239 c0 -226 -1 -240 -21
-265 -37 -47 -101 -30 -119 32 -5 20 -10 135 -10 255 l0 217 -40 0 -41 0 3
-257z"/>
<path d="M3770 6141 l0 -311 45 0 45 0 2 203 3 202 29 -80 c16 -44 49 -135 73
-202 l45 -123 44 0 44 0 0 310 0 310 -45 0 -45 0 -2 -200 -3 -200 -71 198 -72
197 -46 3 -46 3 0 -310z"/>
<path d="M4170 6139 l0 -311 111 4 111 3 33 37 c83 90 99 344 32 493 -34 73
-59 85 -187 85 l-100 0 0 -311z m193 191 c35 -28 47 -76 47 -191 0 -157 -22
-199 -107 -199 l-53 0 0 198 c0 109 3 202 7 205 14 15 81 6 106 -13z"/>
<path d="M4560 6140 l0 -310 150 0 150 0 0 55 0 55 -105 0 -105 0 0 80 0 80
95 0 95 0 0 55 0 55 -95 0 -95 0 0 70 0 70 100 0 100 0 0 50 0 50 -145 0 -145
0 0 -310z"/>
<path d="M4930 6140 l0 -310 40 0 40 0 0 126 0 126 54 -4 c78 -6 86 -16 86
-102 0 -39 3 -88 6 -108 7 -38 7 -38 56 -38 44 0 49 2 42 18 -4 9 -11 64 -15
121 -6 83 -11 109 -29 133 l-22 30 21 22 c56 60 54 214 -4 272 -23 23 -31 24
-150 24 l-125 0 0 -310z m204 204 c25 -10 39 -67 26 -112 -11 -44 -26 -52
-102 -52 l-48 0 0 85 0 85 54 0 c30 0 61 -3 70 -6z"/>
<path d="M2250 5592 c-79 -43 -127 -185 -116 -347 7 -120 30 -189 81 -242 39
-41 45 -43 98 -43 51 0 61 4 96 35 42 38 71 104 71 162 0 32 -2 33 -39 33 -37
0 -39 -2 -45 -38 -8 -51 -38 -82 -80 -82 -63 0 -95 68 -96 203 0 107 14 168
47 202 48 47 115 20 129 -53 6 -29 10 -32 45 -32 37 0 39 1 39 33 0 43 -47
135 -81 160 -39 28 -106 32 -149 9z"/>
<path d="M2651 5593 c-75 -37 -125 -163 -124 -313 1 -122 28 -210 81 -270 36
-40 42 -44 98 -48 50 -3 64 0 94 20 43 29 84 102 100 179 18 83 8 239 -19 310
-44 115 -140 166 -230 122z m127 -127 c69 -78 66 -300 -5 -378 -10 -11 -30
-18 -54 -18 -74 0 -117 99 -106 251 10 157 91 228 165 145z"/>
<path d="M3423 5590 c-42 -25 -61 -55 -73 -118 -13 -68 2 -149 34 -180 12 -13
54 -35 92 -48 38 -14 77 -33 87 -41 25 -23 23 -97 -3 -123 -47 -47 -140 -3
-140 65 0 11 -12 15 -40 15 -35 0 -40 -3 -40 -22 0 -49 24 -104 60 -140 35
-35 42 -38 96 -38 113 0 163 62 164 200 0 118 -18 138 -171 194 -60 22 -78 56
-55 110 14 33 18 36 55 36 45 0 69 -19 78 -61 5 -26 10 -29 44 -29 37 0 39 1
39 33 0 46 -39 118 -79 144 -43 29 -104 30 -148 3z"/>
<path d="M4951 5593 c-145 -72 -162 -482 -24 -603 29 -25 42 -30 88 -30 49 0
59 4 94 35 42 38 71 104 71 162 0 32 -1 33 -40 33 -36 0 -40 -2 -40 -25 0 -33
-25 -81 -45 -89 -86 -33 -134 38 -135 199 0 105 11 153 46 195 46 54 115 28
130 -48 6 -29 10 -32 45 -32 36 0 39 2 39 29 0 69 -51 154 -106 177 -44 18
-81 17 -123 -3z"/>
<path d="M5835 5592 c-51 -32 -84 -79 -106 -153 -18 -60 -21 -89 -17 -184 4
-104 7 -118 39 -181 46 -93 82 -117 163 -112 55 4 62 8 97 47 65 73 95 207 78
349 -11 93 -56 191 -101 223 -43 31 -114 36 -153 11z m120 -116 c68 -69 73
-299 8 -377 -22 -26 -31 -30 -66 -27 -34 2 -45 9 -64 36 -43 65 -55 223 -22
309 29 77 98 105 144 59z"/>
<path d="M2970 5286 l0 -316 40 0 40 0 2 211 3 211 76 -209 75 -208 42 -3 42
-3 0 315 0 316 -40 0 -40 0 -2 -207 -3 -208 -75 205 -75 205 -43 3 -42 3 0
-315z"/>
<path d="M3690 5545 l0 -55 60 0 60 0 2 -257 3 -258 40 0 40 0 3 258 2 257 55
0 55 0 0 55 0 55 -160 0 -160 0 0 -55z"/>
<path d="M4070 5285 l0 -315 40 0 40 0 0 125 0 125 58 0 c32 0 63 -5 70 -12 7
-7 12 -45 13 -92 2 -127 7 -140 53 -144 43 -4 65 10 49 30 -6 7 -13 59 -15
116 -4 84 -9 108 -26 132 -18 24 -19 30 -7 40 29 24 48 97 43 163 -6 74 -27
119 -63 135 -15 7 -73 12 -140 12 l-115 0 0 -315z m221 188 c18 -20 17 -106 0
-127 -10 -12 -32 -16 -77 -16 l-64 0 0 80 0 80 64 0 c47 0 67 -4 77 -17z"/>
<path d="M4452 5348 c3 -241 4 -255 26 -300 30 -61 73 -88 140 -88 44 0 57 5
88 32 61 54 64 68 64 353 l0 255 -40 0 -39 0 -3 -244 c-3 -223 -5 -246 -22
-265 -12 -13 -31 -21 -50 -21 -71 1 -76 18 -76 294 l0 236 -46 0 -46 0 4 -252z"/>
<path d="M5210 5545 l0 -55 60 0 60 0 0 -260 0 -260 40 0 40 0 0 260 0 260 60
0 60 0 0 55 0 55 -160 0 -160 0 0 -55z"/>
<path d="M5570 5285 l0 -315 40 0 40 0 0 315 0 315 -40 0 -40 0 0 -315z"/>
<path d="M6150 5285 l0 -315 40 0 40 0 0 213 c0 122 4 206 9 197 5 -8 38 -96
74 -195 36 -99 68 -188 72 -197 5 -13 18 -18 46 -18 l39 0 0 315 0 315 -40 0
-40 0 -2 -206 -3 -206 -75 206 -74 206 -43 0 -43 0 0 -315z"/>
</g>
</svg>
